<svg width="20" height="20" viewBox="0 0 20 20" fill="none" xmlns="http://www.w3.org/2000/svg">
<path d="M1.875 5.625L1.875 14.375C1.875 14.7065 2.0067 15.0245 2.24112 15.2589C2.47554 15.4933 2.79348 15.625 3.125 15.625L5.9375 15.625C6.13148 15.6246 6.32273 15.5792 6.49623 15.4925C6.66973 15.4057 6.82077 15.2799 6.9375 15.125L10 11.0414L13.0625 15.125C13.1792 15.2799 13.3303 15.4057 13.5038 15.4925C13.6773 15.5792 13.8685 15.6246 14.0625 15.625L16.875 15.625C17.2065 15.625 17.5245 15.4933 17.7589 15.2589C17.9933 15.0245 18.125 14.7065 18.125 14.375L18.125 5.625C18.125 5.29348 17.9933 4.97554 17.7589 4.74112C17.5245 4.5067 17.2065 4.375 16.875 4.375L14.0906 4.375C13.8974 4.37544 13.7069 4.42043 13.5338 4.50647C13.3608 4.59251 13.2099 4.71728 13.093 4.87109L10 8.96328L6.90625 4.87109C6.78952 4.71721 6.63882 4.59238 6.4659 4.50632C6.29298 4.42027 6.10252 4.37533 5.90937 4.375L3.125 4.375C2.79348 4.375 2.47554 4.5067 2.24112 4.74112C2.0067 4.97554 1.875 5.29348 1.875 5.625ZM3.125 5.625L5.625 5.625L5.625 10L5.625 14.375L3.125 14.375L3.125 5.625ZM16.875 5.625L16.875 14.375L14.0625 14.375L10.7812 10L14.0898 5.625L16.875 5.625ZM9.21875 10L5.9375 14.375L5.625 14.375L5.625 10L5.625 5.625L5.90937 5.625L9.21875 10Z" fill="#383838"/>
</svg>
