<svg width="20" height="20" viewBox="0 0 20 20" fill="none" xmlns="http://www.w3.org/2000/svg">
<path d="M18.6328 10.3655L14.5703 15.9905C14.5124 16.0712 14.4362 16.1369 14.3479 16.1822C14.2596 16.2275 14.1617 16.2512 14.0625 16.2512C13.9632 16.2512 13.8654 16.2275 13.7771 16.1822C13.6888 16.1369 13.6125 16.0712 13.5546 15.9905L5.93902 5.44209L2.38356 10.364C2.33554 10.4307 2.27486 10.4872 2.20498 10.5305C2.1351 10.5737 2.05739 10.6028 1.97629 10.616C1.89518 10.6292 1.81227 10.6263 1.73228 10.6074C1.6523 10.5886 1.57681 10.5542 1.51012 10.5062C1.44343 10.4581 1.38686 10.3975 1.34362 10.3276C1.30038 10.2577 1.27133 10.18 1.25813 10.0989C1.24493 10.0178 1.24783 9.93487 1.26667 9.85488C1.28551 9.7749 1.31992 9.69941 1.36793 9.63272L5.43043 4.00772C5.4883 3.92707 5.56454 3.86136 5.65284 3.81604C5.74115 3.77071 5.83898 3.74707 5.93824 3.74707C6.0375 3.74707 6.13534 3.77071 6.22364 3.81604C6.31195 3.86136 6.38819 3.92707 6.44606 4.00772L14.064 14.5546L17.6195 9.63272C17.6675 9.56603 17.7282 9.50946 17.7981 9.46622C17.8679 9.42298 17.9457 9.39393 18.0268 9.38073C18.1079 9.36753 18.1908 9.37043 18.2708 9.38927C18.3508 9.40811 18.4262 9.44252 18.4929 9.49053C18.5596 9.53855 18.6162 9.59923 18.6594 9.66911C18.7027 9.73898 18.7317 9.8167 18.7449 9.8978C18.7581 9.97891 18.7552 10.0618 18.7364 10.1418C18.7175 10.2218 18.6831 10.2973 18.6351 10.364L18.6328 10.3655Z" fill="#383838"/>
</svg>
