<svg width="720" height="145" viewBox="0 0 720 145" fill="none" xmlns="http://www.w3.org/2000/svg">
<path d="M398.825 56.1992H366.185C365.031 56.1992 364.096 57.158 364.096 58.3407V142.368C364.096 143.551 365.031 144.509 366.185 144.509H398.825C399.979 144.509 400.914 143.551 400.914 142.368V58.3407C400.914 57.158 399.979 56.1992 398.825 56.1992Z" fill="black"/>
<path d="M90.0004 100.354C90.0004 75.9681 69.8531 56.1992 45.0002 56.1992C20.1473 56.1992 0 75.9681 0 100.354C0 124.741 20.1473 144.509 45.0002 144.509C69.8531 144.509 90.0004 124.741 90.0004 100.354Z" fill="black"/>
<path d="M192.274 100.354C192.274 75.9681 172.127 56.1992 147.274 56.1992C122.421 56.1992 102.273 75.9681 102.273 100.354C102.273 124.741 122.421 144.509 147.274 144.509C172.127 144.509 192.274 124.741 192.274 100.354Z" fill="black"/>
<path d="M347.727 100.354C347.727 75.9681 327.58 56.1992 302.727 56.1992C277.874 56.1992 257.727 75.9681 257.727 100.354C257.727 124.741 277.874 144.509 302.727 144.509C327.58 144.509 347.727 124.741 347.727 100.354Z" fill="black"/>
<path d="M243.382 4.01367H210.713C209.568 4.01367 208.639 4.97058 208.639 6.15099V142.37C208.639 143.55 209.568 144.507 210.713 144.507H243.382C244.528 144.507 245.457 143.55 245.457 142.37V6.15099C245.457 4.97058 244.528 4.01367 243.382 4.01367Z" fill="black"/>
<path d="M382.918 0H382.092C372.153 0 364.096 8.08729 364.096 18.0635C364.096 28.0396 372.153 36.1269 382.092 36.1269H382.918C392.857 36.1269 400.914 28.0396 400.914 18.0635C400.914 8.08729 392.857 0 382.918 0Z" fill="black"/>
<path fill-rule="evenodd" clip-rule="evenodd" d="M445.61 134.345H477.719V143.352H433.635V53.7026H445.61V134.35V134.345ZM486.012 107.853C486.012 100.646 487.501 94.3254 490.484 88.8775C493.468 83.4345 497.573 79.2078 502.791 76.2121C508.013 73.2065 513.822 71.7062 520.233 71.7062C526.547 71.7062 532.029 73.0371 536.68 75.6938C541.326 78.3554 544.794 81.7 547.074 85.7274V72.8676H559.181V143.347H547.074V130.233C544.708 134.345 541.173 137.759 536.481 140.456C531.789 143.158 526.327 144.508 520.095 144.508C513.689 144.508 507.906 142.963 502.724 139.873C497.548 136.793 493.468 132.461 490.484 126.889C487.501 121.311 486.012 114.966 486.012 107.848V107.853ZM547.074 107.978C547.074 102.664 545.977 98.0338 543.784 94.0862C541.592 90.1485 538.634 87.123 534.9 85.0196C531.161 82.9165 526.914 81.8289 522.599 81.8694C518.121 81.8694 514.041 82.8962 510.359 84.9598C506.672 87.0133 503.729 90.0139 501.536 93.9616C499.343 97.9042 498.252 102.535 498.252 107.853C498.252 113.251 499.348 117.946 501.541 121.934C503.734 125.922 506.672 128.962 510.359 131.065C514.074 133.176 518.303 134.266 522.599 134.221C527.072 134.221 531.172 133.169 534.9 131.065C538.628 128.967 541.592 125.922 543.784 121.934C545.977 117.946 547.074 113.296 547.074 107.978V107.978ZM591.429 85.9865C593.882 81.7847 597.482 78.3554 602.22 75.6938C606.953 73.0371 612.349 71.7062 618.408 71.7062C624.9 71.7062 630.734 73.2065 635.911 76.2121C641.087 79.2127 645.162 83.4345 648.151 88.8775C651.129 94.3254 652.624 100.646 652.624 107.853C652.624 114.966 651.129 121.311 648.146 126.889C645.162 132.461 641.062 136.793 635.845 139.878C630.622 142.968 624.808 144.508 618.403 144.508C612.181 144.508 606.713 143.178 602.021 140.521C597.329 137.864 593.795 134.475 591.429 130.358V143.352H579.449V48.1699H591.429V85.9865ZM640.384 107.853C640.384 102.535 639.287 97.9042 637.094 93.9616C634.901 90.0139 631.943 87.0133 628.21 84.9548C624.455 82.8906 620.211 81.8267 615.904 81.8694C611.518 81.8694 607.458 82.9162 603.73 85.0196C600.007 87.123 597.018 90.1635 594.784 94.151C592.54 98.1385 591.429 102.749 591.429 107.978C591.429 113.296 592.546 117.946 594.784 121.934C597.018 125.922 600.002 128.962 603.73 131.065C607.427 133.159 611.635 134.25 615.904 134.221C620.22 134.262 624.47 133.172 628.21 131.065C631.938 128.967 634.901 125.922 637.094 121.934C639.287 117.946 640.384 113.251 640.384 107.853V107.853ZM693.816 144.508C688.288 144.508 683.351 143.586 679.011 141.742C674.666 139.898 671.223 137.326 668.678 134.026C666.136 130.731 664.668 126.764 664.466 122.642H676.838C677.19 126.33 678.878 129.331 681.903 131.644C684.932 133.961 688.9 135.118 693.816 135.118C698.462 135.118 702.083 134.111 704.674 132.097C707.26 130.079 708.55 127.442 708.55 124.187C708.55 121.097 707.153 118.804 704.343 117.308C701.538 115.803 697.192 114.323 691.312 112.867C685.962 111.497 681.622 110.126 678.287 108.75C674.982 107.4 672.05 105.306 669.729 102.639C667.363 99.9429 666.179 96.3591 666.179 91.903C666.179 88.2146 667.23 84.8252 669.336 81.7398C671.443 78.6495 674.487 76.2072 678.48 74.4128C682.474 72.6084 687.1 71.7062 692.368 71.7062C700.349 71.7062 706.801 73.6801 711.712 77.6227C716.623 81.5704 719.26 86.9735 719.607 93.832H707.632C707.372 89.9741 705.857 86.8837 703.093 84.571C700.329 82.2532 696.621 81.0969 691.975 81.0969C687.589 81.0969 684.142 82.0439 681.643 83.928C680.447 84.7834 679.482 85.9088 678.828 87.2082C678.174 88.5075 677.852 89.9422 677.889 91.3896C677.889 93.7871 678.679 95.741 680.26 97.2413C681.841 98.7366 683.769 99.898 686.049 100.71C689.262 101.817 692.511 102.829 695.79 103.736C701.053 105.107 705.266 106.457 708.423 107.788C711.564 109.105 714.355 111.106 716.583 113.64C718.862 116.212 720 119.641 720 123.928C720 127.87 718.929 131.389 716.782 134.475C714.629 137.565 711.579 140.007 707.632 141.807C703.685 143.606 699.079 144.508 693.811 144.508H693.816Z" fill="black"/>
</svg>
