<svg width="152" height="40" viewBox="0 0 152 40" fill="none" xmlns="http://www.w3.org/2000/svg">
<path d="M42.9563 33.3107H39.8613V36.6416H42.9563V33.3107Z" fill="black"/>
<path d="M42.9563 29.9795H39.8613V33.3107H42.9563V29.9795Z" fill="black"/>
<path d="M42.9563 6.68933H39.8613V10.0204H42.9563V6.68933Z" fill="black"/>
<path d="M42.9563 3.3584H39.8613V6.68944H42.9563V3.3584Z" fill="black"/>
<path d="M39.8604 33.3108H36.7656V36.6417H39.8604V33.3108Z" fill="black"/>
<path d="M39.8604 29.9794H36.7656V33.3106H39.8604V29.9794Z" fill="black"/>
<path d="M39.8604 26.6486H36.7656V29.9796H39.8604V26.6486Z" fill="black"/>
<path d="M39.8604 13.3514H36.7656V16.6825H39.8604V13.3514Z" fill="black"/>
<path d="M39.8604 10.0206H36.7656V13.3517H39.8604V10.0206Z" fill="black"/>
<path d="M39.8604 6.68921H36.7656V10.0203H39.8604V6.68921Z" fill="black"/>
<path d="M39.8604 3.35828H36.7656V6.68932H39.8604V3.35828Z" fill="black"/>
<path d="M36.7666 26.6484H33.6719V29.9795H36.7666V26.6484Z" fill="black"/>
<path d="M36.7666 23.3174H33.6719V26.6484H36.7666V23.3174Z" fill="black"/>
<path d="M36.7666 13.3514H33.6719V16.6825H36.7666V13.3514Z" fill="black"/>
<path d="M33.6709 23.3171H30.5762V26.6482H33.6709V23.3171Z" fill="black"/>
<path d="M33.6709 19.9863H30.5762V23.3174H33.6709V19.9863Z" fill="black"/>
<path d="M33.6709 16.6554H30.5762V19.9864H33.6709V16.6554Z" fill="black"/>
<path d="M36.7666 19.9863H33.6719V23.3174H36.7666V19.9863Z" fill="black"/>
<path d="M36.7666 10.0205H33.6719V13.3515H36.7666V10.0205Z" fill="black"/>
<path d="M30.5772 19.9863H27.4824V23.3174H30.5772V19.9863Z" fill="black"/>
<path d="M30.5772 16.6554H27.4824V19.9864H30.5772V16.6554Z" fill="black"/>
<path d="M27.5069 26.6486H24.4121V29.9796H27.5069V26.6486Z" fill="black"/>
<path d="M27.5069 23.3171H24.4121V26.6482H27.5069V23.3171Z" fill="black"/>
<path d="M27.5069 19.9863H24.4121V23.3174H27.5069V19.9863Z" fill="black"/>
<path d="M27.5069 16.6554H24.4121V19.9864H27.5069V16.6554Z" fill="black"/>
<path d="M27.5069 13.3514H24.4121V16.6825H27.5069V13.3514Z" fill="black"/>
<path d="M27.5069 10.0206H24.4121V13.3517H27.5069V10.0206Z" fill="black"/>
<path d="M24.4132 33.3108H21.3184V36.6417H24.4132V33.3108Z" fill="black"/>
<path d="M24.4132 29.9794H21.3184V33.3106H24.4132V29.9794Z" fill="black"/>
<path d="M24.4132 26.6486H21.3184V29.9796H24.4132V26.6486Z" fill="black"/>
<path d="M24.4132 23.3171H21.3184V26.6482H24.4132V23.3171Z" fill="black"/>
<path d="M24.4132 13.3514H21.3184V16.6825H24.4132V13.3514Z" fill="black"/>
<path d="M24.4132 10.0206H21.3184V13.3517H24.4132V10.0206Z" fill="black"/>
<path d="M24.4132 6.68921H21.3184V10.0203H24.4132V6.68921Z" fill="black"/>
<path d="M24.4132 3.35828H21.3184V6.68932H24.4132V3.35828Z" fill="black"/>
<path d="M21.3174 33.3108H18.2227V36.6417H21.3174V33.3108Z" fill="black"/>
<path d="M21.3174 29.9794H18.2227V33.3106H21.3174V29.9794Z" fill="black"/>
<path d="M21.3174 10.0206H18.2227V13.3517H21.3174V10.0206Z" fill="black"/>
<path d="M21.3174 6.68921H18.2227V10.0203H21.3174V6.68921Z" fill="black"/>
<path d="M21.3174 3.35828H18.2227V6.68932H21.3174V3.35828Z" fill="black"/>
<path d="M83.3313 33.3107H80.2363V36.6416H83.3313V33.3107Z" fill="black"/>
<path d="M83.3313 29.9795H80.2363V33.3107H83.3313V29.9795Z" fill="black"/>
<path d="M83.3313 6.68933H80.2363V10.0204H83.3313V6.68933Z" fill="black"/>
<path d="M83.3313 3.3584H80.2363V6.68944H83.3313V3.3584Z" fill="black"/>
<path d="M80.2354 33.3108H77.1406V36.6417H80.2354V33.3108Z" fill="black"/>
<path d="M80.2354 29.9794H77.1406V33.3106H80.2354V29.9794Z" fill="black"/>
<path d="M80.2354 26.6486H77.1406V29.9796H80.2354V26.6486Z" fill="black"/>
<path d="M80.2354 10.0206H77.1406V13.3517H80.2354V10.0206Z" fill="black"/>
<path d="M80.2354 6.68921H77.1406V10.0203H80.2354V6.68921Z" fill="black"/>
<path d="M80.2354 3.35828H77.1406V6.68932H80.2354V3.35828Z" fill="black"/>
<path d="M77.1418 29.9795H74.0469V33.3107H77.1418V29.9795Z" fill="black"/>
<path d="M77.1418 26.6484H74.0469V29.9795H77.1418V26.6484Z" fill="black"/>
<path d="M77.1418 23.3174H74.0469V26.6484H77.1418V23.3174Z" fill="black"/>
<path d="M77.1418 13.3514H74.0469V16.6825H77.1418V13.3514Z" fill="black"/>
<path d="M77.1418 10.0205H74.0469V13.3515H77.1418V10.0205Z" fill="black"/>
<path d="M77.1418 6.68933H74.0469V10.0204H77.1418V6.68933Z" fill="black"/>
<path d="M74.0459 26.6486H70.9512V29.9796H74.0459V26.6486Z" fill="black"/>
<path d="M74.0459 23.3171H70.9512V26.6482H74.0459V23.3171Z" fill="black"/>
<path d="M74.0459 13.3514H70.9512V16.6825H74.0459V13.3514Z" fill="black"/>
<path d="M74.0459 10.0206H70.9512V13.3517H74.0459V10.0206Z" fill="black"/>
<path d="M70.9522 23.3174H67.8574V26.6484H70.9522V23.3174Z" fill="black"/>
<path d="M70.9522 19.9863H67.8574V23.3174H70.9522V19.9863Z" fill="black"/>
<path d="M70.9522 16.6553H67.8574V19.9863H70.9522V16.6553Z" fill="black"/>
<path d="M70.9522 13.3514H67.8574V16.6825H70.9522V13.3514Z" fill="black"/>
<path d="M67.8564 19.9863H64.7617V23.3174H67.8564V19.9863Z" fill="black"/>
<path d="M67.8564 16.6554H64.7617V19.9864H67.8564V16.6554Z" fill="black"/>
<path d="M64.7627 33.3108H61.668V36.6417H64.7627V33.3108Z" fill="black"/>
<path d="M64.7627 29.9794H61.668V33.3106H64.7627V29.9794Z" fill="black"/>
<path d="M64.7627 26.6486H61.668V29.9796H64.7627V26.6486Z" fill="black"/>
<path d="M64.7627 23.3171H61.668V26.6482H64.7627V23.3171Z" fill="black"/>
<path d="M64.7627 19.9863H61.668V23.3174H64.7627V19.9863Z" fill="black"/>
<path d="M64.7627 16.6554H61.668V19.9864H64.7627V16.6554Z" fill="black"/>
<path d="M64.7627 13.3514H61.668V16.6825H64.7627V13.3514Z" fill="black"/>
<path d="M64.7627 10.0206H61.668V13.3517H64.7627V10.0206Z" fill="black"/>
<path d="M64.7627 6.68921H61.668V10.0203H64.7627V6.68921Z" fill="black"/>
<path d="M64.7627 3.35828H61.668V6.68932H64.7627V3.35828Z" fill="black"/>
<path d="M61.6924 33.3108H58.5977V36.6417H61.6924V33.3108Z" fill="black"/>
<path d="M61.6924 29.9794H58.5977V33.3106H61.6924V29.9794Z" fill="black"/>
<path d="M61.6924 26.6486H58.5977V29.9796H61.6924V26.6486Z" fill="black"/>
<path d="M61.6924 23.3171H58.5977V26.6482H61.6924V23.3171Z" fill="black"/>
<path d="M61.6924 19.9863H58.5977V23.3174H61.6924V19.9863Z" fill="black"/>
<path d="M61.6924 16.6554H58.5977V19.9864H61.6924V16.6554Z" fill="black"/>
<path d="M61.6924 13.3514H58.5977V16.6825H61.6924V13.3514Z" fill="black"/>
<path d="M61.6924 10.0206H58.5977V13.3517H61.6924V10.0206Z" fill="black"/>
<path d="M61.6924 6.68921H58.5977V10.0203H61.6924V6.68921Z" fill="black"/>
<path d="M61.6924 3.35828H58.5977V6.68932H61.6924V3.35828Z" fill="black"/>
<path d="M146.483 33.3108H143.389V36.6417H146.483V33.3108Z" fill="black"/>
<path d="M146.483 29.9794H143.389V33.3106H146.483V29.9794Z" fill="black"/>
<path d="M146.483 26.6486H143.389V29.9796H146.483V26.6486Z" fill="black"/>
<path d="M146.483 19.9863H143.389V23.3174H146.483V19.9863Z" fill="black"/>
<path d="M146.483 16.6554H143.389V19.9864H146.483V16.6554Z" fill="black"/>
<path d="M146.483 13.3514H143.389V16.6825H146.483V13.3514Z" fill="black"/>
<path d="M146.483 10.0206H143.389V13.3517H146.483V10.0206Z" fill="black"/>
<path d="M146.483 6.68921H143.389V10.0203H146.483V6.68921Z" fill="black"/>
<path d="M143.388 33.3107H140.293V36.6416H143.388V33.3107Z" fill="black"/>
<path d="M143.388 29.9795H140.293V33.3107H143.388V29.9795Z" fill="black"/>
<path d="M143.388 26.6484H140.293V29.9795H143.388V26.6484Z" fill="black"/>
<path d="M143.388 23.3174H140.293V26.6484H143.388V23.3174Z" fill="black"/>
<path d="M143.388 19.9863H140.293V23.3174H143.388V19.9863Z" fill="black"/>
<path d="M143.388 16.6553H140.293V19.9863H143.388V16.6553Z" fill="black"/>
<path d="M143.388 13.3514H140.293V16.6825H143.388V13.3514Z" fill="black"/>
<path d="M143.388 10.0205H140.293V13.3515H143.388V10.0205Z" fill="black"/>
<path d="M143.388 6.68933H140.293V10.0204H143.388V6.68933Z" fill="black"/>
<path d="M143.388 3.3584H140.293V6.68944H143.388V3.3584Z" fill="black"/>
<path d="M140.294 23.3171H137.199V26.6482H140.294V23.3171Z" fill="black"/>
<path d="M140.294 19.9863H137.199V23.3174H140.294V19.9863Z" fill="black"/>
<path d="M140.294 16.6554H137.199V19.9864H140.294V16.6554Z" fill="black"/>
<path d="M140.294 6.68921H137.199V10.0203H140.294V6.68921Z" fill="black"/>
<path d="M140.294 3.35828H137.199V6.68932H140.294V3.35828Z" fill="black"/>
<path d="M137.198 19.9863H134.104V23.3174H137.198V19.9863Z" fill="black"/>
<path d="M137.198 16.6554H134.104V19.9864H137.198V16.6554Z" fill="black"/>
<path d="M137.198 6.68921H134.104V10.0203H137.198V6.68921Z" fill="black"/>
<path d="M137.198 3.35828H134.104V6.68932H137.198V3.35828Z" fill="black"/>
<path d="M134.104 19.9863H131.01V23.3174H134.104V19.9863Z" fill="black"/>
<path d="M134.104 16.6554H131.01V19.9864H134.104V16.6554Z" fill="black"/>
<path d="M134.104 6.68921H131.01V10.0203H134.104V6.68921Z" fill="black"/>
<path d="M134.104 3.35828H131.01V6.68932H134.104V3.35828Z" fill="black"/>
<path d="M131.009 19.9863H127.914V23.3174H131.009V19.9863Z" fill="black"/>
<path d="M131.009 16.6554H127.914V19.9864H131.009V16.6554Z" fill="black"/>
<path d="M131.009 6.68921H127.914V10.0203H131.009V6.68921Z" fill="black"/>
<path d="M131.009 3.35828H127.914V6.68932H131.009V3.35828Z" fill="black"/>
<path d="M127.913 33.3108H124.818V36.6417H127.913V33.3108Z" fill="black"/>
<path d="M127.913 29.9794H124.818V33.3106H127.913V29.9794Z" fill="black"/>
<path d="M127.913 26.6486H124.818V29.9796H127.913V26.6486Z" fill="black"/>
<path d="M127.913 23.3171H124.818V26.6482H127.913V23.3171Z" fill="black"/>
<path d="M127.913 19.9863H124.818V23.3174H127.913V19.9863Z" fill="black"/>
<path d="M127.913 16.6554H124.818V19.9864H127.913V16.6554Z" fill="black"/>
<path d="M127.913 13.3514H124.818V16.6825H127.913V13.3514Z" fill="black"/>
<path d="M127.913 10.0206H124.818V13.3517H127.913V10.0206Z" fill="black"/>
<path d="M127.913 6.68921H124.818V10.0203H127.913V6.68921Z" fill="black"/>
<path d="M127.913 3.35828H124.818V6.68932H127.913V3.35828Z" fill="black"/>
<path d="M124.819 33.3107H121.725V36.6416H124.819V33.3107Z" fill="black"/>
<path d="M124.819 29.9795H121.725V33.3107H124.819V29.9795Z" fill="black"/>
<path d="M124.819 26.6484H121.725V29.9795H124.819V26.6484Z" fill="black"/>
<path d="M124.819 23.3174H121.725V26.6484H124.819V23.3174Z" fill="black"/>
<path d="M124.819 19.9863H121.725V23.3174H124.819V19.9863Z" fill="black"/>
<path d="M124.819 16.6553H121.725V19.9863H124.819V16.6553Z" fill="black"/>
<path d="M124.819 13.3514H121.725V16.6825H124.819V13.3514Z" fill="black"/>
<path d="M124.819 10.0205H121.725V13.3515H124.819V10.0205Z" fill="black"/>
<path d="M124.819 6.68933H121.725V10.0204H124.819V6.68933Z" fill="black"/>
<path d="M124.819 3.3584H121.725V6.68944H124.819V3.3584Z" fill="black"/>
<path d="M116.261 29.9795H113.166V33.3107H116.261V29.9795Z" fill="black"/>
<path d="M116.261 26.6484H113.166V29.9795H116.261V26.6484Z" fill="black"/>
<path d="M116.261 23.3174H113.166V26.6484H116.261V23.3174Z" fill="black"/>
<path d="M116.261 19.9863H113.166V23.3174H116.261V19.9863Z" fill="black"/>
<path d="M116.261 16.6553H113.166V19.9863H116.261V16.6553Z" fill="black"/>
<path d="M116.261 13.3514H113.166V16.6825H116.261V13.3514Z" fill="black"/>
<path d="M116.261 10.0205H113.166V13.3515H116.261V10.0205Z" fill="black"/>
<path d="M116.261 6.68933H113.166V10.0204H116.261V6.68933Z" fill="black"/>
<path d="M113.167 33.3108H110.072V36.6417H113.167V33.3108Z" fill="black"/>
<path d="M113.167 29.9794H110.072V33.3106H113.167V29.9794Z" fill="black"/>
<path d="M113.167 26.6486H110.072V29.9796H113.167V26.6486Z" fill="black"/>
<path d="M113.167 23.3171H110.072V26.6482H113.167V23.3171Z" fill="black"/>
<path d="M113.167 19.9863H110.072V23.3174H113.167V19.9863Z" fill="black"/>
<path d="M113.167 16.6554H110.072V19.9864H113.167V16.6554Z" fill="black"/>
<path d="M113.167 13.3514H110.072V16.6825H113.167V13.3514Z" fill="black"/>
<path d="M113.167 10.0206H110.072V13.3517H113.167V10.0206Z" fill="black"/>
<path d="M113.167 6.68921H110.072V10.0203H113.167V6.68921Z" fill="black"/>
<path d="M113.167 3.35828H110.072V6.68932H113.167V3.35828Z" fill="black"/>
<path d="M110.071 33.3107H106.977V36.6416H110.071V33.3107Z" fill="black"/>
<path d="M110.071 29.9795H106.977V33.3107H110.071V29.9795Z" fill="black"/>
<path d="M110.071 6.68933H106.977V10.0204H110.071V6.68933Z" fill="black"/>
<path d="M110.071 3.3584H106.977V6.68944H110.071V3.3584Z" fill="black"/>
<path d="M107.003 33.3108H103.908V36.6417H107.003V33.3108Z" fill="black"/>
<path d="M107.003 29.9794H103.908V33.3106H107.003V29.9794Z" fill="black"/>
<path d="M107.003 6.68921H103.908V10.0203H107.003V6.68921Z" fill="black"/>
<path d="M107.003 3.35828H103.908V6.68932H107.003V3.35828Z" fill="black"/>
<path d="M103.907 33.3107H100.812V36.6416H103.907V33.3107Z" fill="black"/>
<path d="M103.907 29.9795H100.812V33.3107H103.907V29.9795Z" fill="black"/>
<path d="M103.907 6.68933H100.812V10.0204H103.907V6.68933Z" fill="black"/>
<path d="M103.907 3.3584H100.812V6.68944H103.907V3.3584Z" fill="black"/>
<path d="M100.812 33.3108H97.7168V36.6417H100.812V33.3108Z" fill="black"/>
<path d="M100.812 29.9794H97.7168V33.3106H100.812V29.9794Z" fill="black"/>
<path d="M100.812 6.68921H97.7168V10.0203H100.812V6.68921Z" fill="black"/>
<path d="M100.812 3.35828H97.7168V6.68932H100.812V3.35828Z" fill="black"/>
<path d="M97.718 33.3107H94.623V36.6416H97.718V33.3107Z" fill="black"/>
<path d="M97.718 29.9795H94.623V33.3107H97.718V29.9795Z" fill="black"/>
<path d="M97.718 26.6484H94.623V29.9795H97.718V26.6484Z" fill="black"/>
<path d="M97.718 23.3174H94.623V26.6484H97.718V23.3174Z" fill="black"/>
<path d="M97.718 19.9863H94.623V23.3174H97.718V19.9863Z" fill="black"/>
<path d="M97.718 16.6553H94.623V19.9863H97.718V16.6553Z" fill="black"/>
<path d="M97.718 13.3514H94.623V16.6825H97.718V13.3514Z" fill="black"/>
<path d="M97.718 10.0205H94.623V13.3515H97.718V10.0205Z" fill="black"/>
<path d="M97.718 6.68933H94.623V10.0204H97.718V6.68933Z" fill="black"/>
<path d="M97.718 3.3584H94.623V6.68944H97.718V3.3584Z" fill="black"/>
<path d="M94.6221 33.3108H91.5273V36.6417H94.6221V33.3108Z" fill="black"/>
<path d="M94.6221 29.9794H91.5273V33.3106H94.6221V29.9794Z" fill="black"/>
<path d="M94.6221 26.6486H91.5273V29.9796H94.6221V26.6486Z" fill="black"/>
<path d="M94.6221 23.3171H91.5273V26.6482H94.6221V23.3171Z" fill="black"/>
<path d="M94.6221 19.9863H91.5273V23.3174H94.6221V19.9863Z" fill="black"/>
<path d="M94.6221 16.6554H91.5273V19.9864H94.6221V16.6554Z" fill="black"/>
<path d="M94.6221 13.3514H91.5273V16.6825H94.6221V13.3514Z" fill="black"/>
<path d="M94.6221 10.0206H91.5273V13.3517H94.6221V10.0206Z" fill="black"/>
<path d="M94.6221 6.68921H91.5273V10.0203H94.6221V6.68921Z" fill="black"/>
<path d="M94.6221 3.35828H91.5273V6.68932H94.6221V3.35828Z" fill="black"/>
<path d="M91.5283 33.3107H88.4336V36.6416H91.5283V33.3107Z" fill="black"/>
<path d="M91.5283 29.9795H88.4336V33.3107H91.5283V29.9795Z" fill="black"/>
<path d="M91.5283 6.68933H88.4336V10.0204H91.5283V6.68933Z" fill="black"/>
<path d="M91.5283 3.3584H88.4336V6.68944H91.5283V3.3584Z" fill="black"/>
<path d="M48.3859 36.9146H45.5195V39.9999H48.3859V36.9146Z" fill="#F57D6A"/>
<path d="M51.2257 33.8567H48.3594V36.942H51.2257V33.8567Z" fill="#F57D6A"/>
<path d="M54.0932 18.4575H51.2266V21.5428H54.0932V18.4575Z" fill="#F57D6A"/>
<path d="M51.2257 21.5425H48.3594V24.6278H51.2257V21.5425Z" fill="#F57D6A"/>
<path d="M51.2257 15.3722H48.3594V18.4575H51.2257V15.3722Z" fill="#F57D6A"/>
<path d="M51.2257 30.7712H48.3594V33.8566H51.2257V30.7712Z" fill="#F57D6A"/>
<path d="M51.2257 27.6863H48.3594V30.7713H51.2257V27.6863Z" fill="#F57D6A"/>
<path d="M51.2257 24.6003H48.3594V27.6856H51.2257V24.6003Z" fill="#F57D6A"/>
<path d="M51.2257 12.3142H48.3594V15.3995H51.2257V12.3142Z" fill="#F57D6A"/>
<path d="M51.2257 9.22876H48.3594V12.3141H51.2257V9.22876Z" fill="#F57D6A"/>
<path d="M51.2257 6.14331H48.3594V9.22864H51.2257V6.14331Z" fill="#F57D6A"/>
<path d="M51.2257 3.08545H48.3594V6.17076H51.2257V3.08545Z" fill="#F57D6A"/>
<path d="M48.3859 0H45.5195V3.08533H48.3859V0Z" fill="#F57D6A"/>
<path d="M14.3665 36.9146H11.5V39.9999H14.3665V36.9146Z" fill="#F57D6A"/>
<path d="M14.3665 0H11.5V3.08533H14.3665V0Z" fill="#F57D6A"/>
<path d="M11.5267 33.8567H8.66016V36.942H11.5267V33.8567Z" fill="#F57D6A"/>
<path d="M11.5267 30.7712H8.66016V33.8566H11.5267V30.7712Z" fill="#F57D6A"/>
<path d="M11.5267 27.6863H8.66016V30.7713H11.5267V27.6863Z" fill="#F57D6A"/>
<path d="M11.5267 24.6003H8.66016V27.6856H11.5267V24.6003Z" fill="#F57D6A"/>
<path d="M11.5267 12.3142H8.66016V15.3995H11.5267V12.3142Z" fill="#F57D6A"/>
<path d="M11.5267 9.22876H8.66016V12.3141H11.5267V9.22876Z" fill="#F57D6A"/>
<path d="M11.5267 6.14331H8.66016V9.22864H11.5267V6.14331Z" fill="#F57D6A"/>
<path d="M11.5267 3.08545H8.66016V6.17076H11.5267V3.08545Z" fill="#F57D6A"/>
<path d="M11.5267 21.5425H8.66016V24.6278H11.5267V21.5425Z" fill="#F57D6A"/>
<path d="M11.5267 15.3722H8.66016V18.4575H11.5267V15.3722Z" fill="#F57D6A"/>
<path d="M8.65945 18.4574H5.79297V21.5427H8.65945V18.4574Z" fill="#F57D6A"/>
</svg>
